<?xml version="1.0" encoding="UTF-8"?>
<!DOCTYPE svg PUBLIC "-//W3C//DTD SVG 1.1//EN" "http://www.w3.org/Graphics/SVG/1.1/DTD/svg11.dtd">
<!-- Creator: CorelDRAW 2020 (64-Bit) -->
<svg xmlns="http://www.w3.org/2000/svg" xml:space="preserve" width="109.516mm" height="29.8679mm" version="1.1" style="shape-rendering:geometricPrecision; text-rendering:geometricPrecision; image-rendering:optimizeQuality; fill-rule:evenodd; clip-rule:evenodd"
viewBox="0 0 11130.19 3035.5"
 xmlns:xlink="http://www.w3.org/1999/xlink"
 xmlns:xodm="http://www.corel.com/coreldraw/odm/2003">
 <defs>
  <style type="text/css">
   <![CDATA[
    .fil0 {fill:#003082;fill-rule:nonzero}
    .fil1 {fill:#00A3E0;fill-rule:nonzero}
   ]]>
  </style>
 </defs>
 <g id="Vrstva_x0020_1">
  <metadata id="CorelCorpID_0Corel-Layer"/>
  <path class="fil0" d="M9707.9 533.61c0,-54.41 44.32,-98.74 98.73,-98.74l1224.82 0c54.41,0 98.73,44.33 98.73,98.74l0 231.68c0,54.37 -44.32,98.7 -98.73,98.7 -18.1,0 -36.23,-6.06 -50.35,-14.12l-284.06 -159.13c-10.08,-6.06 -20.13,-10.08 -32.25,-10.08 -36.24,0 -64.45,30.21 -64.45,66.46l0 1045.55c0,54.41 -44.3,98.7 -98.7,98.7l-231.68 0c-54.38,0 -98.7,-44.29 -98.7,-98.7l0 -878.33c0,-38.27 -22.17,-68.49 -52.38,-86.62l-362.63 -209.52c-30.21,-16.14 -48.35,-48.36 -48.35,-84.59zm-884.35 1259.06l0 0 0 -1259.06c0,-54.41 44.32,-98.74 98.69,-98.74l362.63 0c54.37,0 100.73,44.33 100.73,98.74 0,38.26 -20.12,70.51 -50.38,88.61l-245.75 153.12c-20.16,12.07 -34.24,34.24 -34.24,58.4 0,24.2 14.08,46.32 34.24,58.47l245.75 153.08c30.26,18.14 50.38,50.39 50.38,86.62l0 660.76c0,54.41 -46.35,98.7 -100.73,98.7l-362.63 0c-54.37,0 -98.69,-44.29 -98.69,-98.7zm-1996.41 -1208.71l0 0c-8.08,-14.12 -12.1,-30.21 -12.1,-48.36 0,-54.41 44.32,-100.74 98.73,-100.74l447.22 0c54.37,0 98.73,46.32 98.73,100.74l0 759.47c0,36.3 30.18,66.52 66.46,66.52 12.11,0 22.17,-2.06 32.25,-8.08l463.33 -265.93c32.25,-18.14 42.33,-56.37 24.19,-88.62l-241.73 -415c-8.09,-14.12 -12.07,-30.21 -12.07,-48.36 0,-54.41 44.29,-100.74 98.69,-100.74l511.68 0c54.37,0 98.7,46.32 98.7,100.74 0,18.14 -3.99,34.24 -12.08,48.36l-743.36 1291.34c-16.1,30.21 -50.35,48.32 -86.62,48.32 -36.27,0 -68.48,-18.1 -84.63,-48.32l-747.38 -1291.34zm-1638.13 1208.71l0 0c0,-20.13 4,-36.23 12.07,-50.35l745.39 -1291.34c16.11,-30.21 48.34,-48.32 84.61,-48.32 36.26,0 70.5,18.1 86.62,48.32l745.4 1289.32c8.05,14.11 12.07,32.24 12.07,52.37 0,54.41 -44.32,98.7 -98.69,98.7l-447.25 0c-54.38,0 -98.7,-44.29 -98.7,-98.7l0 -763.52c0,-36.23 -28.2,-66.46 -64.45,-66.46 -12.11,0 -22.21,2 -32.24,8.06l-465.37 265.92c-20.15,12.08 -32.23,34.25 -32.23,50.39 0,14.08 1.99,28.18 8.07,40.27l241.71 415c8.07,14.12 14.13,30.21 14.13,50.35 0,54.41 -44.34,98.7 -98.73,98.7l-513.71 0c-54.38,0 -98.69,-44.29 -98.69,-98.7zm-1616.51 -4.58l0 0 0 -1259.1c0,-54.37 44.31,-98.7 98.7,-98.7l263.91 0c54.39,0 98.7,44.33 98.7,98.7 0,20.16 -6.03,36.27 -14.08,52.41l-175.25 312.25c-6.06,10.04 -8.08,18.13 -8.08,30.21 0,36.23 30.24,66.46 66.48,66.46l313.61 0 151.76 0c36.26,0 64.48,-30.23 64.48,-66.46l0 -394.88c0,-54.37 44.3,-98.7 98.69,-98.7l231.69 0c54.39,0 98.69,44.33 98.69,98.7l0 378.52 0 800.04 0 80.53c0,54.41 -44.3,98.7 -98.69,98.7l-231.69 0c-54.39,0 -98.69,-44.29 -98.69,-98.7l0 -398.86c0,-35.12 -28.52,-62.12 -63.26,-63.83 -18.26,-0.42 -35.17,-0.63 -48.02,-0.63l-21.72 0 -83.25 0 -148.4 0c-36.27,0 -66.51,28.19 -66.51,64.46l0 398.86c0,54.41 -44.31,98.7 -98.7,98.7l-231.68 0c-54.39,0 -98.7,-44.29 -98.7,-98.7z"/>
  <path class="fil0" d="M1608.37 782.52l-993.42 -747.74c-48.22,-38.89 -118.1,-44.92 -178.47,-19.29 -60.42,25.67 -101.33,78.67 -106.77,140.37l-328.59 2678.34c-3.49,29.2 1.23,58.88 15.46,92.46 38.46,90.64 143.62,133.12 234.22,94.64l855.81 -363.29c4.77,-2.03 8.83,-4.91 13.34,-7.32l-665.65 -129.41c-28.79,-5.74 -55.58,-19.33 -83.11,-43.32 -74.28,-64.53 -82.25,-177.69 -17.6,-251.95l245.34 -282.27 -152.93 -114.31c-18.61,-15.79 -31.98,-37.89 -41.92,-61.34 -11.4,-26.89 -6.95,-72.37 18.11,-106.75l587.17 -772.07c12.51,-17.16 27.85,-27.66 48,-36.2 60.42,-25.63 128.77,4.69 154.39,65.19l539.88 1271.91c38.5,90.62 143.69,133.09 234.32,94.61l688.63 -292.28c-6.57,-11 -13.72,-21.71 -23.91,-30.5l-1042.82 -906.59c-74.28,-64.57 -82.25,-177.69 -17.61,-252.02l18.15 -20.86z"/>
  <path class="fil1" d="M3138.76 2954.05c-5.38,0 -11.1,-0.63 -16.48,-1.89l-2651.4 -515.71c-13.78,-2.72 -27.4,-10.29 -43.07,-23.7 -38.21,-33.33 -42.31,-91.59 -8.92,-130.04l610.01 -701.66c17.35,-19.96 42.74,-31.51 69.63,-31.51 22.16,0 43.59,7.94 60.27,22.47 12.5,10.75 20.36,23.08 26.99,42.05l279.76 822.38c14.81,36.73 37.07,67.12 70.24,96.29 31.4,27 78.24,43.07 125.41,43.07 22.34,0 44.32,-3.47 65.3,-10.19l917.79 -320.5c32.56,-10.61 59.96,-29.48 86.03,-59.42 35.2,-40.44 52.48,-92.43 48.79,-146.18 -3.97,-55.56 -29.36,-106.3 -71.71,-142.91l-1042.86 -906.49c-38.21,-33.16 -42.32,-91.56 -9.03,-130.01l530.95 -610.97c17.32,-19.92 42.74,-31.48 69.52,-31.48 22.38,0 43.87,8.02 60.56,22.62 15.95,13.93 27.75,29.27 32.37,41.97l875.67 2548.27c10.94,28.78 2.84,64.42 -20.37,91.06 -17.82,20.59 -41.7,32.46 -65.44,32.46z"/>
  <path class="fil1" d="M10926.17 2761.37l70.05 0 0 -458.6 111.87 0 0 -52.27 -293.78 0 0 52.27 111.87 0 0 458.6zm-449.32 0l0 0 0 -176.6c0,-109.14 -1.82,-174.33 -7.29,-242.57l1.82 0c21.85,63.69 48.21,122.06 73.67,173.57l116.45 245.61 65.48 0 0 -510.87 -62.75 0 0 182.66c0,88.68 2.73,154.65 8.19,234.97l-1.85 0c-20.91,-55.33 -52.74,-122.79 -78.23,-178.12l-112.78 -239.51 -65.47 0 0 510.87 62.75 0zm-180.07 -291.83l0 0 -153.75 0 0 -168.27 163.76 0 0 -50.76 -233.78 0 0 510.87 244.67 0 0 -50.76 -174.64 0 0 -191.81 153.75 0 0 -49.26zm-402.97 291.83l0 0 65.51 0 -35.51 -510.87 -78.22 0 -69.11 233.43c-20.03,68.98 -33.69,117.5 -45.49,175.87l-2.72 0c-12.74,-58.38 -28.19,-108.41 -49.13,-175.87l-70.94 -233.43 -76.43 0 -36.34 510.87 62.74 0 11.84 -216.03c3.61,-72.8 8.15,-144.01 7.25,-203.88l2.73 0c12.74,59.1 30,122.02 50.94,187.21l70.98 229.69 45.44 0 74.62 -239.56c19.08,-59.1 35.47,-120.51 49.12,-177.34l3.64 0c-2.72,57.59 1.83,132.66 6.37,200.09l12.71 219.82zm-694.93 -461.61l0 0c9.1,-2.32 22.76,-3.82 39.11,-3.82 78.26,0 103.74,47.02 103.74,99.33 0,71.99 -46.39,109.87 -114.64,109.87 -11.83,0 -19.99,-0.74 -28.21,-1.51l0 -203.87zm-70.02 461.61l0 0 70.02 0 0 -209.21c10.05,0.74 19.12,0.74 30.95,0.74 54.56,0 111.91,-18.91 144.64,-56.83 23.67,-25.76 37.29,-57.59 37.29,-104.62 0,-44.71 -15.48,-81.85 -44.58,-106.12 -31.82,-25.76 -80.06,-37.15 -136.44,-37.15 -40.93,0 -73.7,3.81 -101.89,9.88l0 503.31zm-274.72 -45.48l0 0c-79.13,0 -102.76,-111.42 -101.84,-210.74 0,-97.03 22.71,-209.21 101.84,-209.21 79.17,0 100.07,112.95 100.07,208.47 0,100.07 -20.9,211.48 -99.12,211.48l-0.95 0zm-3.6 51.57l0 0c98.24,0 176.46,-74.29 176.46,-265.33 0,-162.99 -62.78,-257.7 -167.37,-257.7 -106.44,0 -180.14,91.7 -180.14,260.71 0,172.12 68.25,262.31 170.09,262.31l0.96 0zm-438.4 -6.09l0 0 241.9 0 0 -49.26 -171.92 0 0 -461.61 -69.98 0 0 510.87zm-116.42 -291.83l0 0 -153.75 0 0 -168.27 163.72 0 0 -50.76 -233.74 0 0 510.87 244.67 0 0 -50.76 -174.64 0 0 -191.81 153.75 0 0 -49.26zm-453 291.83l0 0 142.81 -510.87 -74.58 0 -58.22 237.98c-14.56,60.67 -31.82,131.9 -40.93,197.86l-2.73 0c-10.88,-65.2 -29.13,-138.72 -43.66,-196.32l-59.13 -239.51 -75.49 0 140.09 510.87 71.84 0zm-296.49 -291.83l0 0 -153.75 0 0 -168.27 163.76 0 0 -50.76 -233.78 0 0 510.87 244.68 0 0 -50.76 -174.65 0 0 -191.81 153.75 0 0 -49.26zm-576.66 -170.55l0 0c9.07,-2.28 21.78,-3.05 32.74,-3.05 98.25,0 145.52,70.48 145.52,199.4 0,174.3 -74.58,220.55 -151.89,220.55 -6.37,0 -16.35,0 -26.36,-1.51l0 -415.39zm-70.06 460.1l0 0c20,3.81 50,5.32 78.23,5.32 70.02,0 129.16,-17.43 169.22,-54.58 39.11,-35.65 73.67,-99.3 73.67,-216.04 0,-106.9 -35.51,-172.81 -82.81,-206.96 -33.65,-24.99 -80.04,-38.65 -143.7,-38.65 -35.47,0 -68.2,3.05 -94.61,9.88l0 501.03zm-259.23 -289.56l0 0 -153.71 0 0 -168.27 163.72 0 0 -50.76 -233.74 0 0 510.87 244.67 0 0 -50.76 -174.64 0 0 -191.81 153.71 0 0 -49.26zm-543.9 -171.28l0 0c9.11,-2.32 22.72,-3.05 36.38,-3.05 75.47,0.73 104.58,37.89 104.58,96.24 0,61.42 -44.56,102.34 -111.84,102.34l-29.12 0 0 -195.54zm-70.06 463.11l0 0 70.06 0 0 -222.09 27.28 0c60.03,0 86.41,25.77 100.07,96.3 11.84,62.11 23.64,110.68 32.74,125.8l70.96 0c-9.11,-15.94 -20.94,-59.14 -35.46,-128.85 -12.75,-66.7 -36.39,-103.08 -81.89,-114.46l0 -1.5c61.85,-24.27 98.24,-66.74 98.24,-131.9 0,-40.2 -12.73,-74.29 -42.74,-100.07 -31.83,-25.8 -77.33,-36.41 -138.25,-36.41 -34.6,0 -70.96,3.05 -101,9.88l0 503.31zm-330.17 -200.1l0 0 31.85 -128.85c9.1,-34.91 18.2,-78.85 25.49,-117.51l2.7 0c7.29,37.89 15.47,80.36 24.56,116.73l31.85 129.62 -116.46 0zm126.45 46.99l0 0 40.02 153.11 69.11 0 -136.41 -510.87 -77.34 0 -140.07 510.87 68.22 0 40.02 -153.11 136.44 0zm-637.65 153.11l0 0 60.06 -246.35c14.55,-56.82 25.46,-112.18 33.67,-169.81l1.78 0c8.21,56.12 19.12,113.71 31.85,167.53l58.22 248.63 69.13 0 119.17 -510.87 -69.17 0 -50.91 243.29c-10.93,57.59 -21.84,113.73 -31.83,187.21l-2.73 0c-8.2,-71.24 -21.83,-129.62 -35.5,-190.22l-57.28 -240.29 -59.12 0 -56.41 245.57c-15.5,65.2 -29.12,120.51 -37.29,184.94l-2.71 0c-8.21,-62.88 -17.34,-119.74 -30.96,-184.17l-51.83 -246.34 -71.85 0 117.31 510.87 66.39 0zm-428.36 0l0 0 70.02 0 0 -458.6 111.91 0 0 -52.27 -293.83 0 0 52.27 111.9 0 0 458.6zm-403.85 0l0 0 70.02 0 0 -231.93 152.84 0 0 -49.26 -152.84 0 0 -178.91 163.74 0 0 -50.76 -233.76 0 0 510.87zm-274.7 -45.48l0 0c-79.13,0 -102.8,-111.42 -101.86,-210.74 0,-97.03 22.73,-209.21 101.86,-209.21 79.11,0 100.05,112.95 100.05,208.47 0,100.07 -20.94,211.48 -99.11,211.48l-0.94 0zm-3.62 51.57l0 0c98.23,0 176.46,-74.29 176.46,-265.33 0,-162.99 -62.78,-257.7 -167.4,-257.7 -106.42,0 -180.09,91.7 -180.09,260.71 0,172.12 68.22,262.31 170.08,262.31l0.95 0zm-521.2 -24.26l0 0c17.28,11.34 61.85,22.72 103.69,22.72 97.33,0 171.91,-55.32 171.91,-143.28 0,-56.82 -32.74,-103.85 -106.42,-147.02 -58.23,-34.14 -90.06,-54.58 -90.06,-105.38 0,-34.84 28.22,-72.8 88.24,-72.8 31.84,0 57.33,8.37 72.77,17.47l17.3 -50.06c-14.56,-8.3 -48.23,-18.9 -86.42,-18.9 -96.44,0 -161.91,56.82 -161.91,134.16 0,65.93 67.29,113.68 115.52,141.73 48.17,30.32 80.95,59.14 80.95,106.12 0,51.54 -38.21,86.41 -101.89,86.41 -30.92,0 -67.3,-9.84 -88.24,-20.44l-15.46 49.26z"/>
 </g>
</svg>
