<svg width="247" height="113" viewBox="0 0 247 113" fill="none" xmlns="http://www.w3.org/2000/svg">
<path d="M51.3937 47.1111C50.2861 46.3333 48.8462 46 47.517 46.1111C45.3018 46.1111 43.1973 47.3333 41.9789 49.2222C40.4282 51.7778 39.6529 54.7778 39.7636 57.7778V74.2222H34.6686V42H39.8744V48.6667H39.9852C40.539 46.6667 41.7574 44.7778 43.308 43.3333C44.7479 42.1111 46.5201 41.4445 48.4031 41.4445C49.4 41.4445 50.5076 41.5556 51.5045 41.8889L51.3937 47.1111Z" fill="black"/>
<path d="M101.348 59V54.2222C101.348 51.7778 100.461 49.4444 98.8 47.6667C97.1386 45.8889 94.8126 44.8889 92.3758 44.8889C89.496 44.7778 86.7269 46.1111 84.9547 48.3333C83.1825 50.6667 82.2964 53.8889 82.2964 58.1111C82.1857 61.2222 83.0718 64.2222 84.844 66.7778C86.5054 68.8889 89.0529 70.1111 91.7112 70C94.3695 70.1111 97.0278 69 98.8 66.8889C100.572 64.6667 101.458 61.7778 101.348 59ZM106.553 71C106.553 82.8889 100.905 88.7778 89.6067 88.7778C85.9516 88.8889 82.4072 88.1111 79.1951 86.5556V81.4444C82.2964 83.3333 85.8408 84.3333 89.496 84.4444C97.3601 84.4444 101.348 80.2222 101.348 71.7778V68.2222H101.237C99.0215 72.2222 94.7018 74.5556 90.1606 74.4444C86.5054 74.5556 82.8502 73 80.5242 70.1111C78.0875 67.2222 76.8691 63.4444 76.8691 58.5556C76.8691 53.1111 78.1982 48.6667 80.8565 45.4444C83.5148 42.2222 87.5023 40.4444 91.6005 40.5556C95.5879 40.3333 99.2431 42.3333 101.237 45.7778H101.348V41.3333H106.443L106.553 71Z" fill="black"/>
<path d="M134.909 57.2222L127.155 58.3333C125.272 58.4444 123.389 59.1111 121.728 60.1111C120.509 61 119.845 62.4444 119.845 64.6667C119.845 66.1111 120.399 67.5556 121.506 68.5556C122.725 69.5556 124.386 70.1111 125.937 70.1111C128.374 70.2222 130.589 69.2222 132.25 67.4444C133.912 65.5556 134.798 63.1111 134.798 60.6667L134.909 57.2222ZM140.004 73.5555H134.909V68.5556H134.798C132.915 72.2222 129.038 74.4444 124.94 74.3333C122.171 74.4444 119.513 73.5556 117.408 71.7778C115.525 70 114.528 67.5556 114.639 65C114.639 59 118.183 55.4444 125.272 54.4444L134.909 53.1111C134.909 47.6667 132.693 44.8889 128.263 44.8889C124.386 44.8889 120.62 46.3333 117.74 48.8889V43.6667C120.952 41.6667 124.829 40.5556 128.706 40.6667C136.238 40.6667 140.004 44.6667 140.004 52.6667V73.5555Z" fill="black"/>
<path d="M176.444 73.5556H171.349V55.1111C171.349 48.2222 168.913 44.8889 163.928 44.8889C161.491 44.7778 159.165 45.8889 157.504 47.7778C155.732 49.7778 154.846 52.4445 154.957 55.1111V73.5556H149.861V41.3333H154.957V46.6667H155.067C157.172 42.7778 161.27 40.4445 165.59 40.5556C168.691 40.3333 171.682 41.6667 173.675 44C175.558 46.3333 176.444 49.5556 176.444 53.8889V73.5556Z" fill="black"/>
<path d="M201.366 73.2222C199.926 74 198.265 74.3333 196.603 74.2222C190.954 74.2222 188.185 71.1111 188.185 64.7778V45.6667H182.647V41.2222H188.185V33.3333L193.28 31.6667V41.2222H201.366V45.6667H193.28V63.7778C193.17 65.4444 193.502 67 194.388 68.4444C195.274 69.4444 196.714 70 198.043 69.8889C199.261 69.8889 200.48 69.5555 201.366 68.7778V73.2222Z" fill="black"/>
<path d="M213.439 73.5556H208.344V41.3333H213.439V73.5556ZM210.891 33.1111C210.005 33.1111 209.119 32.7778 208.565 32.2222C207.236 30.8889 207.236 28.7778 208.565 27.4445C209.23 26.7778 210.005 26.4445 210.891 26.4445C211.778 26.4445 212.664 26.7778 213.328 27.4445C214.657 28.7778 214.657 30.8889 213.328 32.2222C212.664 32.7778 211.888 33.1111 210.891 33.1111Z" fill="black"/>
<path d="M68.7834 70V64.4445H66.4574V59.3333H66.0144V41.1111H65.3498V39H64.1314V37.2222H63.6884V36.4445H63.4668V36H63.2453V35.8889H63.0238V35.4445H62.913V34.6667H62.8023V32.4445H62.6915V34.6667H62.5807V35.4445H62.47V35.8889H62.2485V36H62.0269V36.4445H61.8054V37.2222H61.3624V39H60.144V41.1111H59.4794V59.3333H58.9256V64.4445H56.5996V70H54.7166V74.2222H70.7772V70H68.7834Z" fill="#3176BB"/>
</svg>
